<svg width="58" height="40" viewBox="0 0 58 40" fill="none" xmlns="http://www.w3.org/2000/svg">
<path d="M30.766 31.4469C19.5397 41.0373 11.5679 41.7137 7.48529 37.6277C3.72366 33.8661 6.84339 24.4309 14.446 15.1132L0 0.670593H9.23151L23.5809 15.02C14.5254 24.1307 9.24532 33.8316 11.9751 36.5613C14.2355 38.8252 21.1928 35.6882 28.6988 29.3797L30.766 31.4469Z" fill="#E1E1E6"/>
<path d="M57.101 39.3251H47.8694L33.52 24.9757C42.5756 15.8685 47.8556 6.16417 45.1293 3.43786C42.8689 1.17398 35.9047 4.31442 28.3987 10.6229L26.3315 8.55575C37.5612 -1.03812 45.5365 -1.718 49.6191 2.36803C53.3807 6.12965 50.2645 15.5648 42.6584 24.8826L57.1044 39.3251H57.101Z" fill="#E1E1E6"/>
</svg>
